Coordinates
version=1
nRows=16
nColumns=40
inDegrees=yes

Units are S.I. units (second, meters, Newtons, ...)
Angles are in degrees.

endheader
time	pelvis_tilt	pelvis_list	pelvis_rotation	pelvis_tx	pelvis_ty	pelvis_tz	hip_flexion_r	hip_adduction_r	hip_rotation_r	knee_angle_r	knee_angle_r_beta	ankle_angle_r	subtalar_angle_r	mtp_angle_r	hip_flexion_l	hip_adduction_l	hip_rotation_l	knee_angle_l	knee_angle_l_beta	ankle_angle_l	subtalar_angle_l	mtp_angle_l	lumbar_extension	lumbar_bending	lumbar_rotation	arm_flex_r	arm_add_r	arm_rot_r	elbow_flex_r	pro_sup_r	wrist_flex_r	wrist_dev_r	arm_flex_l	arm_add_l	arm_rot_l	elbow_flex_l	pro_sup_l	wrist_flex_l	wrist_dev_l
     27.75000000	     -4.94106008	     -3.73928912	      1.79333068	      1.12027131	      0.91862055	      0.44399210	      2.30974684	     -4.28093035	    -12.77033976	     37.12655221	     37.12655221	      9.09496991	     -3.05291825	    -19.07677676	     28.36785125	     -3.85618033	     -6.43703959	     25.17874766	     25.17874766	      5.50543754	    -15.52025825	      4.40914207	     -6.66297504	      5.43700629	      4.38576860	     31.98073665	    -16.52649261	    -12.60242588	    111.82459659	     44.11652505	      0.00000000	      0.00000000	    -15.49470111	     -5.43673167	      5.01603337	     21.82763898	     44.60797142	      0.00000000	      0.00000000
     27.76114286	     -4.81053997	     -3.51340542	      1.67352945	      1.12024468	      0.91999602	      0.44097278	      4.03257455	     -5.25992667	    -12.21260293	     41.10337623	     41.10337623	      7.15634425	     -4.47741533	    -18.87070009	     27.47768402	     -3.53900602	     -6.82678703	     25.09104019	     25.09104019	      6.16491702	    -15.29573344	      4.06278879	     -6.82647792	      5.33642015	      3.92963384	     30.32262634	    -16.24946089	    -12.36681282	    111.19330074	     44.12889758	      0.00000000	      0.00000000	    -14.14550831	     -5.62156231	      5.04691419	     22.37294122	     44.63521394	      0.00000000	      0.00000000
     27.77228571	     -4.78153967	     -3.37543073	      1.51095331	      1.12001755	      0.92112308	      0.43829238	      5.96591626	     -5.99393534	    -11.43766408	     44.99893831	     44.99893831	      5.25025875	     -6.18893436	    -18.12196401	     26.66744273	     -3.33299097	     -7.22362915	     24.92232180	     24.92232180	      6.80607738	    -14.95900647	      3.66583032	     -6.87479461	      5.27896076	      3.63251083	     28.44877879	    -16.13510204	    -12.27412807	    110.39190863	     44.15132594	      0.00000000	      0.00000000	    -12.72943452	     -5.85931450	      5.02573147	     23.08809871	     44.67224439	      0.00000000	      0.00000000
     27.78342857	     -4.71858566	     -3.39480660	      1.34324923	      1.11967469	      0.92217445	      0.43599116	      8.02651441	     -6.39709839	    -10.53374425	     49.04910792	     49.04910792	      4.86957614	     -7.13037912	    -12.85814179	     25.85856330	     -3.36898282	     -7.74685031	     24.78972615	     24.78972615	      7.25970898	    -14.34839338	      2.56767649	     -6.97880756	      5.38126171	      3.81107867	     26.14569164	    -16.14526261	    -13.14866383	    109.70055121	     44.26009925	      0.00000000	      0.00000000	    -11.25642366	     -6.26220258	      5.05016415	     24.56311754	     44.76229648	      0.00000000	      0.00000000
     27.79457143	     -4.64293148	     -3.30519892	      1.16975282	      1.11917461	      0.92318070	      0.43372923	      9.92327361	     -6.90242610	     -9.81057403	     52.49059386	     52.49059386	      3.41860803	     -8.49788447	    -11.46143958	     25.01751867	     -3.22269849	     -8.10921541	     24.60362870	     24.60362870	      7.78108553	    -14.07232483	      2.19721352	     -7.09090581	      5.35154826	      3.60819299	     24.16538115	    -16.11537633	    -12.92913084	    108.18165148	     44.30743640	      0.00000000	      0.00000000	     -9.60460206	     -6.61533211	      5.01551562	     25.26760885	     44.81365703	      0.00000000	      0.00000000
     27.80571429	     -4.51564939	     -3.30450908	      1.00609738	      1.11860421	      0.92414692	      0.43172485	     11.81192091	     -7.21003266	     -9.10756183	     55.82189980	     55.82189980	      2.98076526	     -9.32382835	     -8.05487010	     24.15170152	     -3.22308042	     -8.55444788	     24.46240466	     24.46240466	      8.25903472	    -13.53088539	      1.51035358	     -7.22340440	      5.42330375	      3.51638820	     22.18705308	    -16.02005018	    -13.08496325	    106.02375531	     44.40136302	      0.00000000	      0.00000000	     -7.90495745	     -6.98876640	      4.91940886	     26.18039251	     44.89023923	      0.00000000	      0.00000000
     27.81685714	     -4.38933340	     -3.16480530	      0.88882616	      1.11791764	      0.92514101	      0.42968255	     13.56483062	     -7.71456010	     -8.62576117	     58.63497630	     58.63497630	      1.99338396	    -10.14195068	     -7.47559834	     23.23522434	     -2.98879961	     -8.80829606	     24.18729010	     24.18729010	      8.68122372	    -13.27527005	      1.29050040	     -7.44868202	      5.35896871	      3.03793330	     20.22783542	    -15.51312634	    -12.71241017	    104.84539421	     44.42232505	      0.00000000	      0.00000000	     -6.18653511	     -7.41479413	      4.84607033	     26.83177150	     44.93592714	      0.00000000	      0.00000000
     27.82800000	     -4.39277258	     -3.11588039	      0.68085608	      1.11711718	      0.92597727	      0.42800928	     15.48377140	     -7.93080059	     -7.99667077	     61.16869735	     61.16869735	      1.46713960	    -11.08829921	     -6.36109549	     22.40296786	     -2.89530199	     -9.16484826	     23.80119718	     23.80119718	      9.12530132	    -12.90245376	      0.95802840	     -7.45540581	      5.32655333	      3.01484709	     18.09293788	    -15.61224518	    -12.64961519	    102.46333579	     44.49375309	      0.00000000	      0.00000000	     -4.35781579	     -7.83099015	      4.73425533	     27.59363813	     44.99147002	      0.00000000	      0.00000000
     27.83914286	     -4.27644162	     -3.15056395	      0.56958067	      1.11624455	      0.92702315	      0.42632262	     17.31334796	     -8.07011533	     -7.55554404	     63.63160016	     63.63160016	      2.77019254	    -10.76873353	     -0.91971148	     21.48747147	     -2.88103261	     -9.47544756	     23.44187967	     23.44187967	      9.27644332	    -12.53161694	     -0.01884875	     -7.56163654	      5.41858277	      2.54049723	     16.75098326	    -15.16631556	    -12.48230156	     98.51479978	     44.66133193	      0.00000000	      0.00000000	     -2.46830867	     -8.27701570	      4.57299762	     28.03322393	     45.11037113	      0.00000000	      0.00000000
     27.85028571	     -4.22705667	     -3.12496273	      0.41423173	      1.11530478	      0.92805280	      0.42477469	     19.01673838	     -8.18295681	     -7.12845319	     65.33967339	     65.33967339	      2.44148739	    -11.39867035	     -0.88292409	     20.60089291	     -2.77934313	     -9.73250553	     23.00971326	     23.00971326	      9.65477826	    -12.20408529	     -0.17082705	     -7.70984816	      5.45317899	      2.53976703	     14.61007787	    -15.20413025	    -12.31019570	     96.16822217	     44.72777443	      0.00000000	      0.00000000	     -0.45187487	     -8.74304470	      4.45859029	     28.79291349	     45.16720298	      0.00000000	      0.00000000
     27.86142857	     -4.09052894	     -3.17494035	      0.26165185	      1.11444994	      0.92924687	      0.42339212	     20.51883676	     -8.17588151	     -6.81492954	     66.63034733	     66.63034733	      2.35317510	    -11.83588583	     -0.87710437	     19.61298413	     -2.76788936	     -9.96367771	     22.57578639	     22.57578639	     10.01343032	    -11.85232790	     -0.45872643	     -7.83096297	      5.53749875	      2.54011236	     12.84141928	    -15.05566599	    -12.37360727	     92.45198460	     44.85012069	      0.00000000	      0.00000000	      1.73540177	     -9.15117170	      4.45878644	     29.16192213	     45.21511432	      0.00000000	      0.00000000
     27.87257143	     -4.02556831	     -3.22921414	      0.13223496	      1.11348887	      0.93040926	      0.42209529	     22.04069511	     -8.13717526	     -6.59327846	     67.54115058	     67.54115058	      2.30018296	    -12.17584023	     -1.01663886	     18.65344729	     -2.74320906	    -10.19138774	     22.01847488	     22.01847488	     10.26962424	    -11.49288573	     -0.79566138	     -7.91728125	      5.62603590	      2.30119191	     11.49447199	    -14.70362860	    -12.33227871	     88.23288505	     44.98869451	      0.00000000	      0.00000000	      3.98221182	     -9.64203596	      4.56776383	     29.16523177	     45.25277306	      0.00000000	      0.00000000
     27.88371429	     -3.98549157	     -3.24389411	     -0.03431358	      1.11250555	      0.93153248	      0.42092869	     23.54122136	     -8.07388217	     -6.33510326	     68.08940154	     68.08940154	      2.28272621	    -12.45519148	     -1.20273709	     17.66986576	     -2.67041894	    -10.43009099	     21.36416522	     21.36416522	     10.52644821	    -11.12758764	     -0.93654864	     -8.03446430	      5.67647354	      2.42161577	      9.60527910	    -14.73899733	    -12.12062602	     85.01875848	     45.08141504	      0.00000000	      0.00000000	      6.19048825	    -10.06916385	      4.56284939	     29.70759812	     45.29646459	      0.00000000	      0.00000000
     27.89485714	     -3.89917858	     -3.35464153	     -0.17407463	      1.11153032	      0.93271148	      0.41991017	     24.85599343	     -7.90258797	     -6.23550668	     68.19285595	     68.19285595	      2.19597118	    -12.62657419	     -1.66571449	     16.66693962	     -2.71553086	    -10.66544351	     20.75890339	     20.75890339	     10.73385024	    -10.74479466	     -1.37708759	     -8.08222499	      5.80054656	      2.01707865	      8.84119385	    -14.16607228	    -12.14684688	     79.50406234	     45.26301668	      0.00000000	      0.00000000	      8.48122257	    -10.57216169	      4.91921043	     29.24195060	     45.30199077	      0.00000000	      0.00000000
     27.90600000	     -3.80374141	     -3.41518157	     -0.35853406	      1.11057435	      0.93384578	      0.41898552	     26.10312338	     -7.73063688	     -6.08589468	     67.95811625	     67.95811625	      2.16739406	    -12.69173097	     -1.82499257	     15.59952314	     -2.69385575	    -10.92442996	     20.06100752	     20.06100752	     10.98396757	    -10.37574603	     -1.49373102	     -8.28490006	      5.91304258	      2.33522707	      6.99824455	    -14.34433125	    -11.95462291	     76.08704243	     45.36184917	      0.00000000	      0.00000000	     10.75662845	    -10.89928276	      4.95692765	     29.92006366	     45.34059502	      0.00000000	      0.00000000
     27.91714286	     -3.74066875	     -3.54360694	     -0.49395230	      1.10957565	      0.93482600	      0.41822786	     27.24520478	     -7.48204786	     -6.08056215	     67.32313611	     67.32313611	      2.07980929	    -12.73242874	     -2.17242982	     14.61883688	     -2.76581539	    -11.17646369	     19.44731702	     19.44731702	     11.21792052	     -9.91932693	     -1.91879652	     -8.30104251	      6.03534119	      1.93700134	      6.54327911	    -13.71700104	    -12.09944609	     70.04820226	     45.56018692	      0.00000000	      0.00000000	     12.97636481	    -11.48697444	      5.44667921	     29.55991691	     45.32655287	      0.00000000	      0.00000000
